Coordinates
version=1
nRows=22
nColumns=24
inDegrees=yes

Units are S.I. units (second, meters, Newtons, ...)
Angles are in degrees.

endheader
time	pelvis_tilt	pelvis_list	pelvis_rotation	pelvis_tx	pelvis_ty	pelvis_tz	hip_flexion_r	hip_adduction_r	hip_rotation_r	knee_angle_r	ankle_angle_r	subtalar_angle_r	mtp_angle_r	hip_flexion_l	hip_adduction_l	hip_rotation_l	knee_angle_l	ankle_angle_l	subtalar_angle_l	mtp_angle_l	lumbar_extension	lumbar_bending	lumbar_rotation
      4.90500000	     -6.29023684	      0.94456336	     -3.57095968	     -1.42110907	      0.00134603	     -0.34987188	     -1.67297159	      3.63467896	      0.89103178	     -5.09945364	      5.87311223	     -9.11455346	      2.52465202	     29.32759427	     -3.88015514	    -12.79833144	    -37.55804744	      3.01571439	    -13.33397296	     -0.38460117	      0.85047153	     -0.49669440	      6.66488293
      4.91000000	     -6.39185991	      0.87795729	     -3.87632640	     -1.41503010	      0.00052219	     -0.34941675	     -2.10082378	      3.70877464	      0.91157653	     -4.83217209	      6.00606849	     -8.88673706	      2.82936545	     29.57295453	     -3.99129694	    -13.19768762	    -35.96243793	      3.05561648	    -13.06687342	     -0.60672538	      0.90063121	     -0.41208098	      7.00500519
      4.91500000	     -6.30201026	      0.84627886	     -4.13307596	     -1.40889766	     -0.00013581	     -0.34906332	     -2.74464486	      3.71940506	      0.77258749	     -4.55175758	      6.16245091	     -8.52572711	      3.25828490	     29.56781414	     -4.01445264	    -13.56500997	    -34.29475106	      3.07703114	    -12.78613419	     -0.96525632	      0.75093638	     -0.38111028	      7.31027810
      4.92000000	     -6.11469480	      0.82485755	     -4.20183782	     -1.40269818	     -0.00077187	     -0.34905944	     -3.50682289	      3.69338027	      0.22007993	     -4.22747300	      6.17964577	     -7.99807880	      4.69544297	     29.46583874	     -3.88903734	    -13.70708573	    -32.62327644	      3.22278920	    -12.45544482	     -2.14039988	      0.49934421	     -0.36556603	      7.40914877
      4.92500000	     -6.20803547	      0.75928512	     -4.52492044	     -1.39660134	     -0.00170173	     -0.34863974	     -3.90359390	      3.74932800	      0.29941006	     -4.05034553	      6.33114850	     -7.77733471	      4.96533097	     29.62954503	     -4.01729668	    -14.21156947	    -30.94082699	      3.16404696	    -12.06472586	     -2.36729500	      0.53909827	     -0.28320456	      7.75167408
      4.93000000	     -6.03920239	      0.72691441	     -4.75920905	     -1.39046270	     -0.00237993	     -0.34835900	     -4.59361607	      3.74063423	      0.10630340	     -3.84768486	      6.46548581	     -7.40169115	      5.46518988	     29.46681201	     -4.03299294	    -14.66407759	    -29.18741003	      3.12049118	    -11.57165413	     -2.68594852	      0.29947057	     -0.26347608	      8.01748644
      4.93500000	     -5.96531511	      0.72457584	     -4.98583587	     -1.38422774	     -0.00319203	     -0.34810855	     -5.16823398	      3.69858967	     -0.02790378	     -3.68316929	      6.63601714	     -7.04752678	      5.93840634	     29.37630327	     -4.02478223	    -15.17340375	    -27.40235746	      3.05860881	    -10.97037330	     -2.83349395	      0.17964470	     -0.26910186	      8.24325072
      4.94000000	     -5.79358481	      0.77141859	     -5.14711741	     -1.37789654	     -0.00392936	     -0.34799885	     -5.85370964	      3.58247812	     -0.27220418	     -3.50782987	      6.77838487	     -6.63393123	      6.72515770	     29.13323048	     -3.90706252	    -15.66963205	    -25.53578388	      2.92846378	    -10.33510210	     -2.67421367	     -0.02844556	     -0.33440477	      8.35697193
      4.94500000	     -5.76845336	      0.77692245	     -5.43388827	     -1.37166382	     -0.00479196	     -0.34772090	     -6.32101796	      3.52075705	     -0.28559613	     -3.44825252	      6.96528898	     -6.32543141	      7.04570203	     29.03342956	     -3.93800917	    -16.42232616	    -23.70900387	      2.91253642	     -9.41873784	     -2.39145936	     -0.09583598	     -0.34201559	      8.62728770
      4.95000000	     -5.58584959	      0.86842130	     -5.61116622	     -1.36533237	     -0.00548707	     -0.34757462	     -6.95583314	      3.34054471	     -0.67330413	     -3.34467443	      6.96185068	     -5.82353767	      8.67132131	     28.68792013	     -3.80251989	    -17.20404120	    -21.65799715	      2.08216829	     -8.70673673	      1.12360305	     -0.31579519	     -0.46697601	      8.74768916
      4.95500000	     -5.40647388	      0.98775357	     -5.83966389	     -1.35902734	     -0.00612181	     -0.34735194	     -7.57170959	      3.12981553	     -0.69906871	     -3.30937987	      7.12873456	     -5.56362319	      8.92654664	     28.32720038	     -3.66696560	    -18.18365984	    -19.64264706	      1.55689464	     -7.65203525	      4.02031494	     -0.53198467	     -0.62456609	      8.92169268
      4.96000000	     -5.12015203	      1.21652185	     -6.05389628	     -1.35269596	     -0.00656293	     -0.34726101	     -8.27169619	      2.76770689	     -0.82048282	     -3.31434226	      7.37650570	     -5.13413966	      9.16658267	     27.82430543	     -3.35827228	    -19.17666401	    -17.63195988	      1.30851955	     -6.39795975	      5.76673906	     -0.84705184	     -0.89908397	      9.05715159
      4.96500000	     -4.95101705	      1.43911236	     -6.33846312	     -1.34639178	     -0.00708740	     -0.34708883	     -8.78233459	      2.41155933	     -0.95601739	     -3.41373237	      7.61175598	     -4.63538291	      9.62642384	     27.43851948	     -3.11921396	    -20.49012970	    -15.61668293	      0.81672400	     -4.92552103	      9.23508927	     -1.04157469	     -1.15844072	      9.29495945
      4.97000000	     -4.84003447	      1.52427714	     -6.39782587	     -1.34012454	     -0.00778677	     -0.34716703	     -9.26265239	      2.23991916	     -1.20681848	     -3.48690953	      7.70233774	     -4.33626313	     10.15442463	     27.18201912	     -2.92997522	    -21.61423465	    -13.69838316	      0.21275994	     -3.19299660	     14.11668770	     -1.20049718	     -1.27952886	      9.20373538
      4.97500000	     -4.69323755	      1.68871838	     -6.54933957	     -1.33381148	     -0.00839627	     -0.34729307	     -9.72617098	      1.94557431	     -1.40762492	     -3.65313855	      7.89882521	     -3.90944160	     10.58203731	     26.86555394	     -2.65655702	    -22.87198669	    -11.83289536	     -0.14849042	     -1.24839365	     17.77776828	     -1.38150699	     -1.47213816	      9.23102205
      4.98000000	     -4.66078309	      1.82158683	     -6.71359355	     -1.32741956	     -0.00913181	     -0.34752791	    -10.05301120	      1.68147189	     -1.56386524	     -3.84829501	      8.04612258	     -3.49884717	     11.08463705	     26.67401113	     -2.41040897	    -24.16365128	    -10.01957116	     -0.54613313	      0.83383241	     21.71022859	     -1.43690308	     -1.60263236	      9.25818531
      4.98500000	     -4.48632356	      1.95869597	     -6.85984079	     -1.32095527	     -0.00976816	     -0.34788846	    -10.52497551	      1.38219268	     -1.79785961	     -4.07240336	      8.22823859	     -2.98301993	     11.57610933	     26.32617321	     -2.10049833	    -25.34010648	     -8.28022277	     -0.84254151	      3.01970483	     25.20912577	     -1.63667753	     -1.74618760	      9.25992913
      4.99000000	     -4.42335126	      2.05145669	     -7.00726738	     -1.31446034	     -0.01053826	     -0.34831285	    -10.85482414	      1.13525775	     -1.97767261	     -4.34479325	      8.36785160	     -2.52645830	     12.09165057	     26.12790773	     -1.83932545	    -26.40760962	     -6.68018104	     -1.12726186	      5.22326336	     28.47446211	     -1.72005661	     -1.82863728	      9.25553706
      4.99500000	     -4.41965459	      2.09051438	     -7.13676026	     -1.30798655	     -0.01137098	     -0.34886399	    -11.08841037	      0.94430693	     -2.14202681	     -4.70100356	      8.56030840	     -2.03967649	     12.31949947	     26.04876620	     -1.62909982	    -27.18909001	     -5.37342995	     -0.94826716	      7.53243726	     29.40348102	     -1.75424022	     -1.83026447	      9.21460191
      5.00000000	     -4.35340615	      2.17541717	     -7.27035575	     -1.30132770	     -0.01216860	     -0.34941163	    -11.39444908	      0.68378555	     -2.37858427	     -5.03407825	      8.63460807	     -1.52293821	     13.09859836	     25.84161577	     -1.33330967	    -27.88643833	     -3.88750456	     -1.59144670	      9.22943095	     33.44014187	     -1.82335949	     -1.89640177	      9.17950419
      5.00500000	     -4.33847573	      2.22736519	     -7.43268758	     -1.29472285	     -0.01297165	     -0.34991824	    -11.60787768	      0.46172122	     -2.49786452	     -5.44981067	      8.76130725	     -1.07298972	     13.35118119	     25.76092081	     -1.12239447	    -28.30295016	     -2.81989203	     -1.54994244	     11.02568953	     34.09931795	     -1.85131369	     -1.92404174	      9.21335381
      5.01000000	     -4.31130628	      2.30634542	     -7.62984484	     -1.28794275	     -0.01375562	     -0.35042135	    -11.82581273	      0.18312340	     -2.64523572	     -5.87656464	      8.83536099	     -0.48430619	     13.95119214	     25.64062255	     -0.88710946	    -28.55874375	     -1.78061841	     -1.79999982	     12.29295935	     35.67303348	     -1.86116559	     -1.97717260	      9.22743286
